<?xml version="1.0" encoding="iso-8859-1"?>
<!-- Uploaded to: SVG Repo, www.svgrepo.com, Generator: SVG Repo Mixer Tools -->
<svg height="800px" width="800px" version="1.1" id="Layer_1" xmlns="http://www.w3.org/2000/svg" xmlns:xlink="http://www.w3.org/1999/xlink" 
	 viewBox="0 0 512 512" xml:space="preserve">
<path style="fill:#414752;" d="M110.192,367.16h184.4l133.92,107.296v-110.64C476.992,351.736,512,308.008,512,256.808V147.88
	c0-60.848-49.44-110.336-110.192-110.336H110.192C49.44,37.528,0,87.032,0,147.88v108.944C0,317.656,49.44,367.16,110.192,367.16z
	 M32,147.88c0-43.2,35.072-78.336,78.192-78.336h291.616C444.912,69.528,480,104.664,480,147.88v108.944
	c0,39.792-29.792,73.232-69.296,77.776l-14.176,1.632v71.584l-90.672-72.64H110.192C67.088,335.16,32,300.008,32,256.808V147.88z"/>
</svg>